<svg xmlns="http://www.w3.org/2000/svg" width="24" height="24" viewBox="0 0 24 24" fill="none" stroke="currentColor" stroke-width="1.5" stroke-linecap="round" stroke-linejoin="round">
  <path d="M12 15a3 3 0 1 0 0-6 3 3 0 0 0 0 6Z"/>
  <path d="m19 12-.78-1.35a1 1 0 0 1 .15-1.2l.9-.9-1.1-1.9-1.26.25a1 1 0 0 1-1.1-.58L14.5 4h-2.2l-.31 1.32a1 1 0 0 1-1.1.74l-1.26-.25-1.1 1.9.9.9a1 1 0 0 1 .15 1.2L5 12l.78 1.35a1 1 0 0 1-.15 1.2l-.9.9 1.1 1.9 1.26-.25a1 1 0 0 1 1.1.58L9.5 20h2.2l.31-1.32a1 1 0 0 1 1.1-.74l1.26.25 1.1-1.9-.9-.9a1 1 0 0 1-.15-1.2Z"/>
</svg>